<svg xmlns="http://www.w3.org/2000/svg" viewBox="0 0 24 24">
  <title>soranime</title>
  <circle cx="12" cy="12" r="9" fill="none" stroke="#7c5cfc" stroke-width="1.8" opacity="0.9"/>
  <path d="M16.4 7.6C15.2 6.3 13.6 5.6 11.8 5.6c-2.4 0-4.3 1.1-4.3 2.8 0 1.6 1.3 2.3 3.7 2.8l1.3.3c2.7.6 4.2 1.5 4.2 3.3 0 2.1-2 3.4-4.8 3.4-2 0-3.9-.7-5.2-2.1" fill="none" stroke="#7c5cfc" stroke-width="1.8" stroke-linecap="round" stroke-linejoin="round"/>
  <path d="M18.2 6.1l.5 1.2 1.2.5-1.2.5-.5 1.2-.5-1.2-1.2-.5 1.2-.5.5-1.2z" fill="#7c5cfc"/>
</svg>
